<svg xmlns="http://www.w3.org/2000/svg" xmlns:xlink="http://www.w3.org/1999/xlink" width="100" zoomAndPan="magnify" viewBox="0 0 75 74.999997" height="100" preserveAspectRatio="xMidYMid meet" version="1.0"><defs><clipPath id="af88470e77"><path d="M 31.855469 34.675781 L 37.855469 34.675781 L 37.855469 40.675781 L 31.855469 40.675781 Z M 31.855469 34.675781 " clip-rule="nonzero"/></clipPath><clipPath id="f6597fdf4e"><path d="M 29.90625 27.082031 L 45.09375 27.082031 L 45.09375 42.273438 L 29.90625 42.273438 Z M 29.90625 27.082031 " clip-rule="nonzero"/></clipPath><clipPath id="ce7717f587"><path d="M 37.5 27.082031 C 33.304688 27.082031 29.90625 30.484375 29.90625 34.675781 C 29.90625 38.871094 33.304688 42.273438 37.5 42.273438 C 41.695312 42.273438 45.09375 38.871094 45.09375 34.675781 C 45.09375 30.484375 41.695312 27.082031 37.5 27.082031 Z M 37.5 27.082031 " clip-rule="nonzero"/></clipPath></defs><g clip-path="url(#af88470e77)"><path fill="#ffffff" d="M 34.671875 40.3125 C 33.121094 40.3125 31.855469 39.050781 31.855469 37.496094 C 31.855469 35.941406 33.121094 34.675781 34.671875 34.675781 C 36.226562 34.675781 37.492188 35.941406 37.492188 37.496094 C 37.492188 39.050781 36.226562 40.3125 34.671875 40.3125 Z M 34.671875 34.71875 C 33.140625 34.71875 31.898438 35.964844 31.898438 37.496094 C 31.898438 39.027344 33.140625 40.273438 34.671875 40.273438 C 36.203125 40.273438 37.449219 39.027344 37.449219 37.496094 C 37.449219 35.964844 36.203125 34.71875 34.671875 34.71875 Z M 34.671875 34.71875 " fill-opacity="1" fill-rule="nonzero"/></g><path fill="#ff3131" d="M 17.5 7 L 37.5 27 L 57.5 7 C 64.5 0 75 10.5 68 17.5 L 48 37.5 L 68 57.5 C 75 64.5 64.5 75 57.5 68 L 37.5 48 L 17.5 68 C 10.5 75 0 64.5 7 57.5 L 27 37.5 L 7 17.5 C 0 10.5 10.5 0 17.5 7 Z M 17.5 7 " fill-opacity="1" fill-rule="evenodd"/><g clip-path="url(#f6597fdf4e)"><g clip-path="url(#ce7717f587)"><path fill="#ff3131" d="M 29.90625 27.082031 L 45.09375 27.082031 L 45.09375 42.273438 L 29.90625 42.273438 Z M 29.90625 27.082031 " fill-opacity="1" fill-rule="nonzero"/></g></g></svg>