<svg xmlns="http://www.w3.org/2000/svg" xmlns:xlink="http://www.w3.org/1999/xlink" width="100" zoomAndPan="magnify" viewBox="0 0 75 74.999997" height="100" preserveAspectRatio="xMidYMid meet" version="1.0"><defs><clipPath id="2cd1807ef0"><path d="M 31.855469 34.675781 L 37.855469 34.675781 L 37.855469 40.675781 L 31.855469 40.675781 Z M 31.855469 34.675781 " clip-rule="nonzero"/></clipPath></defs><path fill="#f73140" d="M 75 37.5 C 75 38.726562 74.941406 39.953125 74.820312 41.175781 C 74.699219 42.398438 74.519531 43.609375 74.28125 44.816406 C 74.039062 46.019531 73.742188 47.210938 73.386719 48.386719 C 73.027344 49.5625 72.617188 50.714844 72.144531 51.851562 C 71.675781 52.984375 71.152344 54.09375 70.570312 55.175781 C 69.992188 56.261719 69.363281 57.3125 68.679688 58.332031 C 67.996094 59.355469 67.265625 60.339844 66.488281 61.289062 C 65.707031 62.238281 64.886719 63.148438 64.015625 64.015625 C 63.148438 64.886719 62.238281 65.707031 61.289062 66.488281 C 60.339844 67.265625 59.355469 67.996094 58.332031 68.679688 C 57.3125 69.363281 56.261719 69.992188 55.175781 70.570312 C 54.09375 71.152344 52.984375 71.675781 51.851562 72.144531 C 50.714844 72.617188 49.5625 73.027344 48.386719 73.386719 C 47.210938 73.742188 46.019531 74.039062 44.816406 74.28125 C 43.609375 74.519531 42.398438 74.699219 41.175781 74.820312 C 39.953125 74.941406 38.726562 75 37.5 75 C 36.273438 75 35.046875 74.941406 33.824219 74.820312 C 32.601562 74.699219 31.390625 74.519531 30.183594 74.28125 C 28.980469 74.039062 27.789062 73.742188 26.613281 73.386719 C 25.4375 73.027344 24.285156 72.617188 23.148438 72.144531 C 22.015625 71.675781 20.90625 71.152344 19.824219 70.570312 C 18.738281 69.992188 17.6875 69.363281 16.667969 68.679688 C 15.644531 67.996094 14.660156 67.265625 13.710938 66.488281 C 12.761719 65.707031 11.851562 64.886719 10.984375 64.015625 C 10.113281 63.148438 9.292969 62.238281 8.511719 61.289062 C 7.734375 60.339844 7.003906 59.355469 6.320312 58.332031 C 5.636719 57.3125 5.007812 56.261719 4.429688 55.175781 C 3.847656 54.09375 3.324219 52.984375 2.855469 51.851562 C 2.382812 50.714844 1.972656 49.5625 1.613281 48.386719 C 1.257812 47.210938 0.960938 46.019531 0.71875 44.816406 C 0.480469 43.609375 0.300781 42.398438 0.179688 41.175781 C 0.0585938 39.953125 0 38.726562 0 37.5 C 0 36.273438 0.0585938 35.046875 0.179688 33.824219 C 0.300781 32.601562 0.480469 31.390625 0.71875 30.183594 C 0.960938 28.980469 1.257812 27.789062 1.613281 26.613281 C 1.972656 25.4375 2.382812 24.285156 2.855469 23.148438 C 3.324219 22.015625 3.847656 20.90625 4.429688 19.824219 C 5.007812 18.738281 5.636719 17.6875 6.320312 16.667969 C 7.003906 15.644531 7.734375 14.660156 8.511719 13.710938 C 9.292969 12.761719 10.113281 11.851562 10.984375 10.984375 C 11.851562 10.113281 12.761719 9.292969 13.710938 8.511719 C 14.660156 7.734375 15.644531 7.003906 16.667969 6.320312 C 17.6875 5.636719 18.738281 5.007812 19.824219 4.429688 C 20.90625 3.847656 22.015625 3.324219 23.148438 2.855469 C 24.285156 2.382812 25.4375 1.972656 26.613281 1.613281 C 27.789062 1.257812 28.980469 0.960938 30.183594 0.71875 C 31.390625 0.480469 32.601562 0.300781 33.824219 0.179688 C 35.046875 0.0585938 36.273438 0 37.5 0 C 38.726562 0 39.953125 0.0585938 41.175781 0.179688 C 42.398438 0.300781 43.609375 0.480469 44.816406 0.71875 C 46.019531 0.960938 47.210938 1.257812 48.386719 1.613281 C 49.5625 1.972656 50.714844 2.382812 51.851562 2.855469 C 52.984375 3.324219 54.09375 3.847656 55.175781 4.429688 C 56.261719 5.007812 57.3125 5.636719 58.332031 6.320312 C 59.355469 7.003906 60.339844 7.734375 61.289062 8.511719 C 62.238281 9.292969 63.148438 10.113281 64.015625 10.984375 C 64.886719 11.851562 65.707031 12.761719 66.488281 13.710938 C 67.265625 14.660156 67.996094 15.644531 68.679688 16.667969 C 69.363281 17.6875 69.992188 18.738281 70.570312 19.824219 C 71.152344 20.90625 71.675781 22.015625 72.144531 23.148438 C 72.617188 24.285156 73.027344 25.4375 73.386719 26.613281 C 73.742188 27.789062 74.039062 28.980469 74.28125 30.183594 C 74.519531 31.390625 74.699219 32.601562 74.820312 33.824219 C 74.941406 35.046875 75 36.273438 75 37.5 Z M 75 37.5 " fill-opacity="1" fill-rule="nonzero"/><path fill="#e5253c" d="M 75 37.5 C 75 58.210938 58.210938 75 37.5 75 C 26.515625 75 16.632812 70.277344 9.777344 62.75 C 15.773438 66.820312 23.015625 69.199219 30.808594 69.199219 C 51.519531 69.199219 68.308594 52.410156 68.308594 31.699219 C 68.308594 21.972656 64.605469 13.113281 58.53125 6.449219 C 68.46875 13.195312 75 24.585938 75 37.5 Z M 75 37.5 " fill-opacity="1" fill-rule="nonzero"/><path fill="#ffffff" d="M 27.367188 55.109375 C 26.242188 55.101562 25.273438 54.710938 24.460938 53.933594 C 24.050781 53.542969 23.734375 53.085938 23.511719 52.5625 C 23.289062 52.039062 23.179688 51.492188 23.183594 50.925781 L 23.183594 24.074219 C 23.179688 23.507812 23.289062 22.960938 23.511719 22.4375 C 23.734375 21.914062 24.050781 21.457031 24.460938 21.066406 C 25.273438 20.289062 26.242188 19.898438 27.367188 19.894531 C 28.109375 19.894531 28.804688 20.082031 29.449219 20.457031 L 52.703125 33.882812 C 53.347656 34.253906 53.859375 34.765625 54.230469 35.410156 C 54.605469 36.058594 54.792969 36.753906 54.792969 37.5 C 54.792969 38.246094 54.605469 38.941406 54.230469 39.589844 C 53.859375 40.234375 53.347656 40.746094 52.703125 41.117188 L 29.449219 54.542969 C 28.804688 54.917969 28.109375 55.105469 27.367188 55.105469 Z M 27.367188 55.109375 " fill-opacity="1" fill-rule="nonzero"/><g clip-path="url(#2cd1807ef0)"><path fill="#ffffff" d="M 34.671875 40.3125 C 33.121094 40.3125 31.855469 39.050781 31.855469 37.496094 C 31.855469 35.941406 33.121094 34.675781 34.671875 34.675781 C 36.226562 34.675781 37.492188 35.941406 37.492188 37.496094 C 37.492188 39.050781 36.226562 40.3125 34.671875 40.3125 Z M 34.671875 34.71875 C 33.140625 34.71875 31.898438 35.964844 31.898438 37.496094 C 31.898438 39.027344 33.140625 40.273438 34.671875 40.273438 C 36.203125 40.273438 37.449219 39.027344 37.449219 37.496094 C 37.449219 35.964844 36.203125 34.71875 34.671875 34.71875 Z M 34.671875 34.71875 " fill-opacity="1" fill-rule="nonzero"/></g></svg>